<mxfile host="app.diagrams.net" modified="2021-06-14T15:45:52.781Z" agent="5.0 (Macintosh; Intel Mac OS X 10_15_7) AppleWebKit/537.36 (KHTML, like Gecko) Chrome/91.0.4472.77 Safari/537.36" etag="Luq0VRy6KG3bJHm08USy" version="14.7.7" type="github">
  <diagram name="Page-1" id="74e2e168-ea6b-b213-b513-2b3c1d86103e">
    <mxGraphModel dx="946" dy="646" grid="1" gridSize="10" guides="1" tooltips="1" connect="1" arrows="1" fold="1" page="1" pageScale="1" pageWidth="1100" pageHeight="850" background="none" math="0" shadow="0">
      <root>
        <mxCell id="0" />
        <mxCell id="1" parent="0" />
        <mxCell id="77e6c97f196da883-1" value="Transaction Process" style="swimlane;html=1;childLayout=stackLayout;startSize=20;rounded=0;shadow=0;labelBackgroundColor=none;strokeWidth=1;fontFamily=Verdana;fontSize=8;align=center;" parent="1" vertex="1">
          <mxGeometry x="90" y="40" width="800" height="900" as="geometry" />
        </mxCell>
        <mxCell id="77e6c97f196da883-2" value="Consumer" style="swimlane;html=1;startSize=20;" parent="77e6c97f196da883-1" vertex="1">
          <mxGeometry y="20" width="160" height="880" as="geometry" />
        </mxCell>
        <mxCell id="EWIWM0Ra-Az1Sp3jiGY9-10" style="edgeStyle=orthogonalEdgeStyle;rounded=0;orthogonalLoop=1;jettySize=auto;html=1;entryX=0.5;entryY=0;entryDx=0;entryDy=0;" parent="77e6c97f196da883-2" source="EWIWM0Ra-Az1Sp3jiGY9-1" target="EWIWM0Ra-Az1Sp3jiGY9-4" edge="1">
          <mxGeometry relative="1" as="geometry" />
        </mxCell>
        <mxCell id="EWIWM0Ra-Az1Sp3jiGY9-1" value="Consumer Places Order" style="rounded=1;whiteSpace=wrap;html=1;" parent="77e6c97f196da883-2" vertex="1">
          <mxGeometry x="20" y="120" width="120" height="60" as="geometry" />
        </mxCell>
        <mxCell id="EWIWM0Ra-Az1Sp3jiGY9-3" style="edgeStyle=orthogonalEdgeStyle;rounded=0;orthogonalLoop=1;jettySize=auto;html=1;entryX=0.5;entryY=0;entryDx=0;entryDy=0;" parent="77e6c97f196da883-2" source="EWIWM0Ra-Az1Sp3jiGY9-2" target="EWIWM0Ra-Az1Sp3jiGY9-1" edge="1">
          <mxGeometry relative="1" as="geometry" />
        </mxCell>
        <mxCell id="EWIWM0Ra-Az1Sp3jiGY9-2" value="Start" style="ellipse;whiteSpace=wrap;html=1;" parent="77e6c97f196da883-2" vertex="1">
          <mxGeometry x="20" y="30" width="120" height="70" as="geometry" />
        </mxCell>
        <mxCell id="EWIWM0Ra-Az1Sp3jiGY9-11" style="edgeStyle=orthogonalEdgeStyle;rounded=0;orthogonalLoop=1;jettySize=auto;html=1;entryX=0.5;entryY=0;entryDx=0;entryDy=0;" parent="77e6c97f196da883-2" source="EWIWM0Ra-Az1Sp3jiGY9-4" target="EWIWM0Ra-Az1Sp3jiGY9-9" edge="1">
          <mxGeometry relative="1" as="geometry" />
        </mxCell>
        <mxCell id="EWIWM0Ra-Az1Sp3jiGY9-4" value="Online Banking Payment Selected" style="rounded=1;whiteSpace=wrap;html=1;" parent="77e6c97f196da883-2" vertex="1">
          <mxGeometry x="20" y="200" width="120" height="60" as="geometry" />
        </mxCell>
        <mxCell id="EWIWM0Ra-Az1Sp3jiGY9-59" style="edgeStyle=orthogonalEdgeStyle;rounded=0;orthogonalLoop=1;jettySize=auto;html=1;entryX=0.5;entryY=0;entryDx=0;entryDy=0;" parent="77e6c97f196da883-2" source="EWIWM0Ra-Az1Sp3jiGY9-6" target="EWIWM0Ra-Az1Sp3jiGY9-58" edge="1">
          <mxGeometry relative="1" as="geometry" />
        </mxCell>
        <mxCell id="EWIWM0Ra-Az1Sp3jiGY9-6" value="Consumer Receives Payment Confirmation Message" style="rounded=1;whiteSpace=wrap;html=1;" parent="77e6c97f196da883-2" vertex="1">
          <mxGeometry x="20" y="450" width="120" height="60" as="geometry" />
        </mxCell>
        <mxCell id="EWIWM0Ra-Az1Sp3jiGY9-57" style="edgeStyle=orthogonalEdgeStyle;rounded=0;orthogonalLoop=1;jettySize=auto;html=1;entryX=0.5;entryY=0;entryDx=0;entryDy=0;" parent="77e6c97f196da883-2" source="EWIWM0Ra-Az1Sp3jiGY9-7" target="EWIWM0Ra-Az1Sp3jiGY9-44" edge="1">
          <mxGeometry relative="1" as="geometry" />
        </mxCell>
        <mxCell id="EWIWM0Ra-Az1Sp3jiGY9-7" value="Consumer Receives Warning Message" style="rounded=1;whiteSpace=wrap;html=1;" parent="77e6c97f196da883-2" vertex="1">
          <mxGeometry x="20" y="640" width="120" height="60" as="geometry" />
        </mxCell>
        <mxCell id="EWIWM0Ra-Az1Sp3jiGY9-9" value="Consumer Enters Account Details" style="rounded=1;whiteSpace=wrap;html=1;" parent="77e6c97f196da883-2" vertex="1">
          <mxGeometry x="20" y="280" width="120" height="60" as="geometry" />
        </mxCell>
        <mxCell id="EWIWM0Ra-Az1Sp3jiGY9-44" value="Continue with Transaction?" style="rhombus;whiteSpace=wrap;html=1;" parent="77e6c97f196da883-2" vertex="1">
          <mxGeometry x="25" y="744" width="110" height="110" as="geometry" />
        </mxCell>
        <mxCell id="EWIWM0Ra-Az1Sp3jiGY9-58" value="EXIT" style="ellipse;whiteSpace=wrap;html=1;" parent="77e6c97f196da883-2" vertex="1">
          <mxGeometry x="45" y="550" width="70" height="50" as="geometry" />
        </mxCell>
        <mxCell id="EWIWM0Ra-Az1Sp3jiGY9-63" value="NO" style="text;html=1;strokeColor=none;fillColor=none;align=center;verticalAlign=middle;whiteSpace=wrap;rounded=0;" parent="77e6c97f196da883-2" vertex="1">
          <mxGeometry y="810" width="40" height="20" as="geometry" />
        </mxCell>
        <mxCell id="77e6c97f196da883-3" value="Issuer Bank" style="swimlane;html=1;startSize=20;" parent="77e6c97f196da883-1" vertex="1">
          <mxGeometry x="160" y="20" width="160" height="880" as="geometry" />
        </mxCell>
        <mxCell id="EWIWM0Ra-Az1Sp3jiGY9-30" style="edgeStyle=orthogonalEdgeStyle;rounded=0;orthogonalLoop=1;jettySize=auto;html=1;entryX=0.5;entryY=0;entryDx=0;entryDy=0;" parent="77e6c97f196da883-3" source="EWIWM0Ra-Az1Sp3jiGY9-12" target="EWIWM0Ra-Az1Sp3jiGY9-29" edge="1">
          <mxGeometry relative="1" as="geometry" />
        </mxCell>
        <mxCell id="EWIWM0Ra-Az1Sp3jiGY9-12" value="Bank Request for User Details" style="rounded=1;whiteSpace=wrap;html=1;" parent="77e6c97f196da883-3" vertex="1">
          <mxGeometry x="20" y="200" width="120" height="60" as="geometry" />
        </mxCell>
        <mxCell id="EWIWM0Ra-Az1Sp3jiGY9-21" style="edgeStyle=orthogonalEdgeStyle;rounded=0;orthogonalLoop=1;jettySize=auto;html=1;entryX=0.5;entryY=0;entryDx=0;entryDy=0;" parent="77e6c97f196da883-3" source="EWIWM0Ra-Az1Sp3jiGY9-13" target="EWIWM0Ra-Az1Sp3jiGY9-20" edge="1">
          <mxGeometry relative="1" as="geometry" />
        </mxCell>
        <mxCell id="EWIWM0Ra-Az1Sp3jiGY9-13" value="Details Validated" style="rhombus;whiteSpace=wrap;html=1;" parent="77e6c97f196da883-3" vertex="1">
          <mxGeometry x="40" y="380" width="80" height="80" as="geometry" />
        </mxCell>
        <mxCell id="EWIWM0Ra-Az1Sp3jiGY9-18" value="NO" style="text;html=1;strokeColor=none;fillColor=none;align=center;verticalAlign=middle;whiteSpace=wrap;rounded=0;" parent="77e6c97f196da883-3" vertex="1">
          <mxGeometry y="393" width="40" height="20" as="geometry" />
        </mxCell>
        <mxCell id="EWIWM0Ra-Az1Sp3jiGY9-19" value="YES" style="text;html=1;strokeColor=none;fillColor=none;align=center;verticalAlign=middle;whiteSpace=wrap;rounded=0;" parent="77e6c97f196da883-3" vertex="1">
          <mxGeometry x="90" y="470" width="40" height="20" as="geometry" />
        </mxCell>
        <mxCell id="EWIWM0Ra-Az1Sp3jiGY9-20" value="Forward Transaction Details to Authentication System" style="rounded=1;whiteSpace=wrap;html=1;" parent="77e6c97f196da883-3" vertex="1">
          <mxGeometry x="20" y="510" width="120" height="60" as="geometry" />
        </mxCell>
        <mxCell id="EWIWM0Ra-Az1Sp3jiGY9-31" style="edgeStyle=orthogonalEdgeStyle;rounded=0;orthogonalLoop=1;jettySize=auto;html=1;entryX=0.5;entryY=0;entryDx=0;entryDy=0;" parent="77e6c97f196da883-3" source="EWIWM0Ra-Az1Sp3jiGY9-29" target="EWIWM0Ra-Az1Sp3jiGY9-13" edge="1">
          <mxGeometry relative="1" as="geometry" />
        </mxCell>
        <mxCell id="EWIWM0Ra-Az1Sp3jiGY9-29" value="Entered Details Compared" style="rounded=1;whiteSpace=wrap;html=1;" parent="77e6c97f196da883-3" vertex="1">
          <mxGeometry x="20" y="290" width="120" height="60" as="geometry" />
        </mxCell>
        <mxCell id="77e6c97f196da883-4" value="Issuer Bank Data Base" style="swimlane;html=1;startSize=20;" parent="77e6c97f196da883-1" vertex="1">
          <mxGeometry x="320" y="20" width="160" height="880" as="geometry" />
        </mxCell>
        <mxCell id="5VXq4EYZHj-MA381rkSk-2" value="&lt;span&gt;Data Base Returns User Information&lt;/span&gt;" style="shape=cylinder3;whiteSpace=wrap;html=1;boundedLbl=1;backgroundOutline=1;size=15;" vertex="1" parent="77e6c97f196da883-4">
          <mxGeometry x="40" y="180" width="80" height="100" as="geometry" />
        </mxCell>
        <mxCell id="5VXq4EYZHj-MA381rkSk-5" value="&lt;span&gt;Consumer Transaction Details Updated&lt;/span&gt;" style="shape=cylinder3;whiteSpace=wrap;html=1;boundedLbl=1;backgroundOutline=1;size=15;" vertex="1" parent="77e6c97f196da883-4">
          <mxGeometry x="40" y="50" width="80" height="100" as="geometry" />
        </mxCell>
        <mxCell id="77e6c97f196da883-5" value="Authentication" style="swimlane;html=1;startSize=20;" parent="77e6c97f196da883-1" vertex="1">
          <mxGeometry x="480" y="20" width="160" height="880" as="geometry" />
        </mxCell>
        <mxCell id="EWIWM0Ra-Az1Sp3jiGY9-36" style="edgeStyle=orthogonalEdgeStyle;rounded=0;orthogonalLoop=1;jettySize=auto;html=1;entryX=0.5;entryY=0;entryDx=0;entryDy=0;" parent="77e6c97f196da883-5" source="EWIWM0Ra-Az1Sp3jiGY9-25" target="EWIWM0Ra-Az1Sp3jiGY9-26" edge="1">
          <mxGeometry relative="1" as="geometry" />
        </mxCell>
        <mxCell id="EWIWM0Ra-Az1Sp3jiGY9-25" value="Transaction Details Received" style="rounded=1;whiteSpace=wrap;html=1;" parent="77e6c97f196da883-5" vertex="1">
          <mxGeometry x="20" y="226" width="120" height="50" as="geometry" />
        </mxCell>
        <mxCell id="EWIWM0Ra-Az1Sp3jiGY9-42" style="edgeStyle=orthogonalEdgeStyle;rounded=0;orthogonalLoop=1;jettySize=auto;html=1;entryX=0.5;entryY=0;entryDx=0;entryDy=0;" parent="77e6c97f196da883-5" source="EWIWM0Ra-Az1Sp3jiGY9-26" target="EWIWM0Ra-Az1Sp3jiGY9-37" edge="1">
          <mxGeometry relative="1" as="geometry" />
        </mxCell>
        <mxCell id="EWIWM0Ra-Az1Sp3jiGY9-26" value="Input Details into Hybrid Prediction Model" style="rounded=1;whiteSpace=wrap;html=1;" parent="77e6c97f196da883-5" vertex="1">
          <mxGeometry x="15" y="330" width="130" height="70" as="geometry" />
        </mxCell>
        <mxCell id="EWIWM0Ra-Az1Sp3jiGY9-50" style="edgeStyle=orthogonalEdgeStyle;rounded=0;orthogonalLoop=1;jettySize=auto;html=1;entryX=0.5;entryY=0;entryDx=0;entryDy=0;" parent="77e6c97f196da883-5" source="EWIWM0Ra-Az1Sp3jiGY9-37" target="EWIWM0Ra-Az1Sp3jiGY9-43" edge="1">
          <mxGeometry relative="1" as="geometry" />
        </mxCell>
        <mxCell id="EWIWM0Ra-Az1Sp3jiGY9-37" value="Fraud Detection" style="rhombus;whiteSpace=wrap;html=1;" parent="77e6c97f196da883-5" vertex="1">
          <mxGeometry x="40" y="420" width="80" height="80" as="geometry" />
        </mxCell>
        <mxCell id="EWIWM0Ra-Az1Sp3jiGY9-41" value="NO" style="text;html=1;strokeColor=none;fillColor=none;align=center;verticalAlign=middle;whiteSpace=wrap;rounded=0;" parent="77e6c97f196da883-5" vertex="1">
          <mxGeometry x="120" y="440" width="40" height="20" as="geometry" />
        </mxCell>
        <mxCell id="EWIWM0Ra-Az1Sp3jiGY9-43" value="Warning Message Generated" style="rounded=1;whiteSpace=wrap;html=1;" parent="77e6c97f196da883-5" vertex="1">
          <mxGeometry x="20" y="530" width="120" height="60" as="geometry" />
        </mxCell>
        <mxCell id="EWIWM0Ra-Az1Sp3jiGY9-51" value="YES" style="text;html=1;strokeColor=none;fillColor=none;align=center;verticalAlign=middle;whiteSpace=wrap;rounded=0;" parent="77e6c97f196da883-5" vertex="1">
          <mxGeometry x="40" y="500" width="40" height="20" as="geometry" />
        </mxCell>
        <mxCell id="77e6c97f196da883-6" value="Receiver Bank" style="swimlane;html=1;startSize=20;" parent="77e6c97f196da883-1" vertex="1">
          <mxGeometry x="640" y="20" width="160" height="880" as="geometry" />
        </mxCell>
        <mxCell id="EWIWM0Ra-Az1Sp3jiGY9-68" style="edgeStyle=orthogonalEdgeStyle;rounded=0;orthogonalLoop=1;jettySize=auto;html=1;" parent="77e6c97f196da883-6" source="EWIWM0Ra-Az1Sp3jiGY9-38" target="EWIWM0Ra-Az1Sp3jiGY9-39" edge="1">
          <mxGeometry relative="1" as="geometry" />
        </mxCell>
        <mxCell id="EWIWM0Ra-Az1Sp3jiGY9-38" value="Money Transfer Completed" style="rounded=0;whiteSpace=wrap;html=1;" parent="77e6c97f196da883-6" vertex="1">
          <mxGeometry x="20" y="430" width="120" height="60" as="geometry" />
        </mxCell>
        <mxCell id="EWIWM0Ra-Az1Sp3jiGY9-39" value="Confirmation Message Generated" style="rounded=1;whiteSpace=wrap;html=1;" parent="77e6c97f196da883-6" vertex="1">
          <mxGeometry x="20" y="730" width="120" height="60" as="geometry" />
        </mxCell>
        <mxCell id="EWIWM0Ra-Az1Sp3jiGY9-76" style="edgeStyle=orthogonalEdgeStyle;rounded=0;orthogonalLoop=1;jettySize=auto;html=1;entryX=0.5;entryY=1;entryDx=0;entryDy=0;" parent="77e6c97f196da883-6" source="EWIWM0Ra-Az1Sp3jiGY9-38" edge="1">
          <mxGeometry relative="1" as="geometry">
            <mxPoint x="80" y="220" as="targetPoint" />
          </mxGeometry>
        </mxCell>
        <mxCell id="5VXq4EYZHj-MA381rkSk-6" value="&lt;span&gt;Consumer Transaction Details Updated&lt;/span&gt;" style="shape=cylinder3;whiteSpace=wrap;html=1;boundedLbl=1;backgroundOutline=1;size=15;" vertex="1" parent="77e6c97f196da883-6">
          <mxGeometry x="40" y="120" width="80" height="100" as="geometry" />
        </mxCell>
        <mxCell id="EWIWM0Ra-Az1Sp3jiGY9-15" style="edgeStyle=orthogonalEdgeStyle;rounded=0;orthogonalLoop=1;jettySize=auto;html=1;entryX=0.442;entryY=1.017;entryDx=0;entryDy=0;entryPerimeter=0;" parent="77e6c97f196da883-1" source="EWIWM0Ra-Az1Sp3jiGY9-13" target="EWIWM0Ra-Az1Sp3jiGY9-9" edge="1">
          <mxGeometry relative="1" as="geometry" />
        </mxCell>
        <mxCell id="EWIWM0Ra-Az1Sp3jiGY9-17" style="edgeStyle=orthogonalEdgeStyle;rounded=0;orthogonalLoop=1;jettySize=auto;html=1;entryX=0;entryY=0.5;entryDx=0;entryDy=0;" parent="77e6c97f196da883-1" source="EWIWM0Ra-Az1Sp3jiGY9-9" target="EWIWM0Ra-Az1Sp3jiGY9-12" edge="1">
          <mxGeometry relative="1" as="geometry" />
        </mxCell>
        <mxCell id="EWIWM0Ra-Az1Sp3jiGY9-40" style="edgeStyle=orthogonalEdgeStyle;rounded=0;orthogonalLoop=1;jettySize=auto;html=1;entryX=0;entryY=0.5;entryDx=0;entryDy=0;" parent="77e6c97f196da883-1" source="EWIWM0Ra-Az1Sp3jiGY9-37" target="EWIWM0Ra-Az1Sp3jiGY9-38" edge="1">
          <mxGeometry relative="1" as="geometry" />
        </mxCell>
        <mxCell id="5VXq4EYZHj-MA381rkSk-3" style="edgeStyle=orthogonalEdgeStyle;rounded=0;orthogonalLoop=1;jettySize=auto;html=1;entryX=0;entryY=0.5;entryDx=0;entryDy=0;entryPerimeter=0;" edge="1" parent="77e6c97f196da883-1" source="EWIWM0Ra-Az1Sp3jiGY9-12" target="5VXq4EYZHj-MA381rkSk-2">
          <mxGeometry relative="1" as="geometry" />
        </mxCell>
        <mxCell id="EWIWM0Ra-Az1Sp3jiGY9-32" value="" style="endArrow=classic;html=1;entryX=1;entryY=0.5;entryDx=0;entryDy=0;" parent="1" target="EWIWM0Ra-Az1Sp3jiGY9-29" edge="1">
          <mxGeometry width="50" height="50" relative="1" as="geometry">
            <mxPoint x="490" y="380" as="sourcePoint" />
            <mxPoint x="440" y="400" as="targetPoint" />
          </mxGeometry>
        </mxCell>
        <mxCell id="EWIWM0Ra-Az1Sp3jiGY9-45" style="edgeStyle=orthogonalEdgeStyle;rounded=0;orthogonalLoop=1;jettySize=auto;html=1;" parent="1" source="EWIWM0Ra-Az1Sp3jiGY9-39" edge="1">
          <mxGeometry relative="1" as="geometry">
            <mxPoint x="810" y="972" as="targetPoint" />
          </mxGeometry>
        </mxCell>
        <mxCell id="EWIWM0Ra-Az1Sp3jiGY9-46" value="" style="endArrow=classic;html=1;" parent="1" edge="1">
          <mxGeometry width="50" height="50" relative="1" as="geometry">
            <mxPoint x="810" y="970" as="sourcePoint" />
            <mxPoint x="50" y="970" as="targetPoint" />
          </mxGeometry>
        </mxCell>
        <mxCell id="EWIWM0Ra-Az1Sp3jiGY9-47" value="" style="endArrow=none;html=1;" parent="1" edge="1">
          <mxGeometry width="50" height="50" relative="1" as="geometry">
            <mxPoint x="50" y="970" as="sourcePoint" />
            <mxPoint x="50" y="540" as="targetPoint" />
            <Array as="points" />
          </mxGeometry>
        </mxCell>
        <mxCell id="EWIWM0Ra-Az1Sp3jiGY9-49" value="" style="endArrow=classic;html=1;entryX=0;entryY=0.5;entryDx=0;entryDy=0;" parent="1" target="EWIWM0Ra-Az1Sp3jiGY9-6" edge="1">
          <mxGeometry width="50" height="50" relative="1" as="geometry">
            <mxPoint x="50" y="540" as="sourcePoint" />
            <mxPoint x="430" y="660" as="targetPoint" />
          </mxGeometry>
        </mxCell>
        <mxCell id="EWIWM0Ra-Az1Sp3jiGY9-55" style="edgeStyle=orthogonalEdgeStyle;rounded=0;orthogonalLoop=1;jettySize=auto;html=1;" parent="1" source="EWIWM0Ra-Az1Sp3jiGY9-43" edge="1">
          <mxGeometry relative="1" as="geometry">
            <mxPoint x="650" y="730" as="targetPoint" />
          </mxGeometry>
        </mxCell>
        <mxCell id="EWIWM0Ra-Az1Sp3jiGY9-56" value="" style="endArrow=classic;html=1;entryX=1;entryY=0.5;entryDx=0;entryDy=0;" parent="1" target="EWIWM0Ra-Az1Sp3jiGY9-7" edge="1">
          <mxGeometry width="50" height="50" relative="1" as="geometry">
            <mxPoint x="650" y="730" as="sourcePoint" />
            <mxPoint x="430" y="690" as="targetPoint" />
          </mxGeometry>
        </mxCell>
        <mxCell id="EWIWM0Ra-Az1Sp3jiGY9-60" value="" style="endArrow=none;html=1;" parent="1" edge="1">
          <mxGeometry width="50" height="50" relative="1" as="geometry">
            <mxPoint x="70" y="860" as="sourcePoint" />
            <mxPoint x="70" y="635" as="targetPoint" />
          </mxGeometry>
        </mxCell>
        <mxCell id="EWIWM0Ra-Az1Sp3jiGY9-62" value="" style="endArrow=classic;html=1;entryX=0;entryY=0.5;entryDx=0;entryDy=0;" parent="1" target="EWIWM0Ra-Az1Sp3jiGY9-58" edge="1">
          <mxGeometry width="50" height="50" relative="1" as="geometry">
            <mxPoint x="70" y="635" as="sourcePoint" />
            <mxPoint x="430" y="720" as="targetPoint" />
          </mxGeometry>
        </mxCell>
        <mxCell id="EWIWM0Ra-Az1Sp3jiGY9-65" value="" style="endArrow=classic;html=1;" parent="1" edge="1">
          <mxGeometry width="50" height="50" relative="1" as="geometry">
            <mxPoint x="720" y="860" as="sourcePoint" />
            <mxPoint x="720" y="520" as="targetPoint" />
          </mxGeometry>
        </mxCell>
        <mxCell id="EWIWM0Ra-Az1Sp3jiGY9-66" value="" style="endArrow=none;html=1;exitX=1;exitY=0.5;exitDx=0;exitDy=0;" parent="1" source="EWIWM0Ra-Az1Sp3jiGY9-44" edge="1">
          <mxGeometry width="50" height="50" relative="1" as="geometry">
            <mxPoint x="380" y="700" as="sourcePoint" />
            <mxPoint x="720" y="860" as="targetPoint" />
          </mxGeometry>
        </mxCell>
        <mxCell id="EWIWM0Ra-Az1Sp3jiGY9-67" style="edgeStyle=orthogonalEdgeStyle;rounded=0;orthogonalLoop=1;jettySize=auto;html=1;" parent="1" source="EWIWM0Ra-Az1Sp3jiGY9-44" edge="1">
          <mxGeometry relative="1" as="geometry">
            <mxPoint x="70" y="859" as="targetPoint" />
          </mxGeometry>
        </mxCell>
        <mxCell id="EWIWM0Ra-Az1Sp3jiGY9-69" value="" style="endArrow=none;html=1;exitX=1;exitY=0.5;exitDx=0;exitDy=0;" parent="1" source="EWIWM0Ra-Az1Sp3jiGY9-20" edge="1">
          <mxGeometry width="50" height="50" relative="1" as="geometry">
            <mxPoint x="380" y="490" as="sourcePoint" />
            <mxPoint x="540" y="600" as="targetPoint" />
          </mxGeometry>
        </mxCell>
        <mxCell id="EWIWM0Ra-Az1Sp3jiGY9-70" value="" style="endArrow=none;html=1;" parent="1" edge="1">
          <mxGeometry width="50" height="50" relative="1" as="geometry">
            <mxPoint x="540" y="600" as="sourcePoint" />
            <mxPoint x="540" y="310" as="targetPoint" />
          </mxGeometry>
        </mxCell>
        <mxCell id="EWIWM0Ra-Az1Sp3jiGY9-71" value="" style="endArrow=classic;html=1;entryX=0;entryY=0.5;entryDx=0;entryDy=0;" parent="1" target="EWIWM0Ra-Az1Sp3jiGY9-25" edge="1">
          <mxGeometry width="50" height="50" relative="1" as="geometry">
            <mxPoint x="540" y="311" as="sourcePoint" />
            <mxPoint x="430" y="440" as="targetPoint" />
          </mxGeometry>
        </mxCell>
        <mxCell id="EWIWM0Ra-Az1Sp3jiGY9-78" value="" style="endArrow=none;html=1;" parent="1" edge="1">
          <mxGeometry width="50" height="50" relative="1" as="geometry">
            <mxPoint x="720" y="520" as="sourcePoint" />
            <mxPoint x="720" y="150" as="targetPoint" />
          </mxGeometry>
        </mxCell>
        <mxCell id="EWIWM0Ra-Az1Sp3jiGY9-79" value="" style="endArrow=classic;html=1;entryX=1.013;entryY=0.41;entryDx=0;entryDy=0;entryPerimeter=0;" parent="1" target="5VXq4EYZHj-MA381rkSk-5" edge="1">
          <mxGeometry width="50" height="50" relative="1" as="geometry">
            <mxPoint x="720" y="150" as="sourcePoint" />
            <mxPoint x="550" y="153" as="targetPoint" />
          </mxGeometry>
        </mxCell>
        <mxCell id="EWIWM0Ra-Az1Sp3jiGY9-80" value="YES" style="text;html=1;strokeColor=none;fillColor=none;align=center;verticalAlign=middle;whiteSpace=wrap;rounded=0;" parent="1" vertex="1">
          <mxGeometry x="250" y="840" width="40" height="20" as="geometry" />
        </mxCell>
        <mxCell id="5VXq4EYZHj-MA381rkSk-4" style="edgeStyle=orthogonalEdgeStyle;rounded=0;orthogonalLoop=1;jettySize=auto;html=1;" edge="1" parent="1" source="5VXq4EYZHj-MA381rkSk-2">
          <mxGeometry relative="1" as="geometry">
            <mxPoint x="490" y="380" as="targetPoint" />
          </mxGeometry>
        </mxCell>
      </root>
    </mxGraphModel>
  </diagram>
</mxfile>
